<svg xmlns="http://www.w3.org/2000/svg" width="93.267" height="40.325" viewBox="0 0 93.267 40.325"><defs><style>.a{fill:#fff;}</style></defs><g transform="translate(-166.501 -11)"><path class="a" d="M-2891.084,31.018c-.169-2.82.789-6.09.338-6.485a4.84,4.84,0,0,0-2.271,0,6.538,6.538,0,0,1-1.281.116c-.169-.113.9-.734.676-1.128-.169-.338-1.466-.226-1.522-.564s1.353-1.128,1.3-1.692c0-.394-2.707-1.184-2.651-1.635.057-.394,2.706-.113,2.82-.62.113-.451-1.635-2.03-1.3-2.368.15-.151.591.2,1.081.546a2.382,2.382,0,0,0,1.231.581c.789-.113,1.071-1.523,1.466-1.466s1.24,2.425,2.143,2.425a1.242,1.242,0,0,0,1.409-.9c-.112-1.353-2.932-2.312-3.158-5.188-.338-3.891,2.143-4.568,2.03-5.583-.112-.959-1.692-1.184-1.748-1.579-.113-.4.789-.283,1.071-1.072.169-.451-.394-1.466-.169-1.748.226-.226,1.3-.057,1.58-.338.337-.226,0-1.635.337-1.748.179-.09.484.105.783.3.265.173.524.346.683.32.4-.057.79-1.128,1.072-1.184.338-.057.563.789,1.071.789.4,0,.959-.846,1.354-.733.4.056.338,1.466.733,1.635.508.169,2.819.338,3.045,2.763.169,1.974,3.891,4.963,4.681,5.414.733.508,1.015,1.128.62,1.409-.338.338-1.128.62-2.312,0a7.865,7.865,0,0,0-3.609-.789c-1.354-.057-3.158-.733-3.44-2.086-.057-.282-.282-.226-.451.225-.169.508-.79,1.58.282,2.256,1.015.677,7.331,3.44,7.613,7.387.282,3.891-2.481,4.623-6.2,6.541-3.778,1.974-3.609,6.146-3.44,7.331.338,2.538.846,5.244,4,5.244A3.033,3.033,0,0,0-2878,33.837c-.113-.9-.677-2.82-1.917-2.82-1.578.057-2.03,1.861-2.537,1.861-.452,0-.283-.508-.169-.846a3.537,3.537,0,0,1,3.439-2.255c2.426,0,3.441,2.142,3.553,4.06.169,3.045-.508,6.315-6.655,6.485-.083,0-.166,0-.248,0C-2888.5,40.325-2890.917,34.3-2891.084,31.018Zm9.643-26.166a.843.843,0,0,0,.79.734.626.626,0,0,0,.62-.734.7.7,0,0,0-.734-.676A.652.652,0,0,0-2881.442,4.852Zm32.314,28.948a5.057,5.057,0,0,1-1.72-1.289,5.771,5.771,0,0,1-1.08-1.9,7.065,7.065,0,0,1-.376-2.32,7.014,7.014,0,0,1,.376-2.3,5.771,5.771,0,0,1,1.08-1.9,5.135,5.135,0,0,1,1.72-1.3,5.305,5.305,0,0,1,2.3-.481,5.31,5.31,0,0,1,2.3.481,5.137,5.137,0,0,1,1.72,1.3,5.771,5.771,0,0,1,1.08,1.9,7.014,7.014,0,0,1,.375,2.3,7.064,7.064,0,0,1-.375,2.32,5.771,5.771,0,0,1-1.08,1.9,5.06,5.06,0,0,1-1.72,1.289,5.4,5.4,0,0,1-2.3.472A5.4,5.4,0,0,1-2849.128,33.8Zm.72-9.5a3.094,3.094,0,0,0-1.08.985,4.438,4.438,0,0,0-.615,1.4,6.454,6.454,0,0,0-.2,1.6,6.449,6.449,0,0,0,.2,1.6,4.429,4.429,0,0,0,.615,1.4,3.094,3.094,0,0,0,1.08.985,3.208,3.208,0,0,0,1.576.368,3.205,3.205,0,0,0,1.576-.368,3.087,3.087,0,0,0,1.08-.985,4.409,4.409,0,0,0,.616-1.4,6.449,6.449,0,0,0,.2-1.6,6.454,6.454,0,0,0-.2-1.6,4.418,4.418,0,0,0-.616-1.4,3.087,3.087,0,0,0-1.08-.985,3.205,3.205,0,0,0-1.576-.367A3.208,3.208,0,0,0-2848.408,24.3Zm33.048,9.7V22.576h2v9.7h5.809V34Zm-11.615,0V22.576h8.223V24.3h-6.223V27.3h5.76v1.632h-5.76v3.344h6.336V34Zm-8.5,0V24.3h-3.616V22.576h9.248V24.3h-3.632V34Zm-22.161,0V28.848h-5.2V34h-2V22.576h2V27.12h5.2V22.576h2V34Zm-4.5-15.2a5.052,5.052,0,0,1-1.72-1.288,5.749,5.749,0,0,1-1.08-1.9,7.039,7.039,0,0,1-.376-2.32,6.993,6.993,0,0,1,.376-2.3,5.745,5.745,0,0,1,1.08-1.9,5.12,5.12,0,0,1,1.72-1.3,5.3,5.3,0,0,1,2.3-.48,6.2,6.2,0,0,1,1.768.248,4.716,4.716,0,0,1,1.5.736,4.077,4.077,0,0,1,1.088,1.224,4.294,4.294,0,0,1,.543,1.7h-1.952a2.5,2.5,0,0,0-.344-.984,2.494,2.494,0,0,0-.664-.712,2.924,2.924,0,0,0-.9-.432,3.707,3.707,0,0,0-1.041-.144,3.2,3.2,0,0,0-1.576.368,3.083,3.083,0,0,0-1.08.984,4.459,4.459,0,0,0-.617,1.4,6.453,6.453,0,0,0-.2,1.6,6.46,6.46,0,0,0,.2,1.6,4.468,4.468,0,0,0,.617,1.4,3.083,3.083,0,0,0,1.08.984,3.2,3.2,0,0,0,1.576.368,3.719,3.719,0,0,0,1.36-.2,2.685,2.685,0,0,0,1-.625,2.6,2.6,0,0,0,.616-1,4.22,4.22,0,0,0,.224-1.311h-3.04v-1.52h4.864V19h-1.28l-.3-1.344a4.758,4.758,0,0,1-1.6,1.264,4.531,4.531,0,0,1-1.841.352A5.38,5.38,0,0,1-2862.136,18.8Zm49.128.2V7.576h4.736a5.325,5.325,0,0,1,2.272.448,4.219,4.219,0,0,1,1.569,1.224,5.222,5.222,0,0,1,.9,1.815,8.1,8.1,0,0,1,.3,2.224,8.1,8.1,0,0,1-.3,2.225,5.222,5.222,0,0,1-.9,1.815A4.228,4.228,0,0,1-2806,18.552a5.325,5.325,0,0,1-2.272.448Zm2-1.632h1.967a4.992,4.992,0,0,0,1.913-.312,2.8,2.8,0,0,0,1.168-.864,3.126,3.126,0,0,0,.576-1.3,8.072,8.072,0,0,0,.152-1.608,8.063,8.063,0,0,0-.152-1.607,3.126,3.126,0,0,0-.576-1.3,2.8,2.8,0,0,0-1.168-.864,4.992,4.992,0,0,0-1.913-.312h-1.967ZM-2819.024,19l-5.2-8.4h-.048V19h-1.9V7.576h2.112l5.217,8.416h.031V7.576h1.9V19Zm-11.84,0-1.073-3.024h-4.559L-2837.568,19h-2.064l4.384-11.424h2.129l4.4,11.424Zm-5.088-4.544h3.488l-1.712-4.912h-.049ZM-2843.584,19a1.866,1.866,0,0,1-.264-.816c-.027-.3-.04-.586-.04-.864a8.241,8.241,0,0,0-.1-1.352,2.369,2.369,0,0,0-.352-.944,1.493,1.493,0,0,0-.7-.552,3.074,3.074,0,0,0-1.128-.176h-2.944V19h-2V7.576h5.456a4.237,4.237,0,0,1,2.832.815,2.844,2.844,0,0,1,.943,2.273,3.316,3.316,0,0,1-.239,1.352,2.954,2.954,0,0,1-.56.864,2.185,2.185,0,0,1-.633.473q-.312.143-.455.192v.031a2.048,2.048,0,0,1,.552.16,1.624,1.624,0,0,1,.552.409,2.224,2.224,0,0,1,.425.727,3.226,3.226,0,0,1,.167,1.121,10.1,10.1,0,0,0,.152,1.832,2.4,2.4,0,0,0,.473,1.176Zm-5.52-6.224h3.28a2.081,2.081,0,0,0,1.456-.456,1.767,1.767,0,0,0,.5-1.368,2.126,2.126,0,0,0-.159-.888,1.3,1.3,0,0,0-.44-.535,1.62,1.62,0,0,0-.641-.257,4.269,4.269,0,0,0-.743-.064h-3.248Z" transform="translate(3063 11)"/></g></svg>