<svg xmlns="http://www.w3.org/2000/svg" width="17.24" height="17.24" viewBox="0 0 17.24 17.24"><defs><style>.a{fill:#fff;}</style></defs><g transform="translate(0)"><path class="a" d="M11.852,0H5.387A5.388,5.388,0,0,0,0,5.387v6.465A5.388,5.388,0,0,0,5.387,17.24h6.465a5.388,5.388,0,0,0,5.387-5.387V5.387A5.388,5.388,0,0,0,11.852,0Zm3.771,11.852a3.775,3.775,0,0,1-3.771,3.771H5.387a3.775,3.775,0,0,1-3.771-3.771V5.387A3.775,3.775,0,0,1,5.387,1.616h6.465a3.775,3.775,0,0,1,3.771,3.771Z"/><g transform="translate(4.31 4.31)"><path class="a" d="M132.31,128a4.31,4.31,0,1,0,4.31,4.31A4.31,4.31,0,0,0,132.31,128Zm0,7A2.694,2.694,0,1,1,135,132.31,2.7,2.7,0,0,1,132.31,135Z" transform="translate(-128 -128)"/></g><g transform="translate(12.679 3.412)"><circle class="a" cx="0.574" cy="0.574" r="0.574"/></g></g></svg>