<svg xmlns="http://www.w3.org/2000/svg" width="19.277" height="16.523" viewBox="0 0 19.277 16.523"><defs><style>.a{fill:#fff;fill-rule:evenodd;}</style></defs><path class="a" d="M34.006,3.612a4.14,4.14,0,0,0,1.738-2.307,7.67,7.67,0,0,1-2.512,1.012A3.85,3.85,0,0,0,30.346,1a4.066,4.066,0,0,0-3.953,4.171,4.364,4.364,0,0,0,.1.95,11.046,11.046,0,0,1-8.151-4.358,4.337,4.337,0,0,0-.535,2.1,4.238,4.238,0,0,0,1.759,3.473,3.813,3.813,0,0,1-1.792-.522v.051a4.121,4.121,0,0,0,3.174,4.09A3.682,3.682,0,0,1,19.9,11.1a3.719,3.719,0,0,1-.743-.074,3.989,3.989,0,0,0,3.694,2.9,7.678,7.678,0,0,1-4.912,1.785A7.469,7.469,0,0,1,17,15.65a10.784,10.784,0,0,0,6.063,1.874c7.276,0,11.252-6.356,11.252-11.868,0-.181,0-.362-.01-.539a8.267,8.267,0,0,0,1.973-2.16A7.58,7.58,0,0,1,34.006,3.612Z" transform="translate(-17 -1)"/></svg>